<?xml version="1.0" encoding="utf-8"?>
<!-- Generator: Adobe Illustrator 24.0.2, SVG Export Plug-In . SVG Version: 6.00 Build 0)  -->
<svg version="1.1" xmlns="http://www.w3.org/2000/svg" xmlns:xlink="http://www.w3.org/1999/xlink" x="0px" y="0px"
	 viewBox="0 0 50 50" style="enable-background:new 0 0 50 50;" xml:space="preserve">
<style type="text/css">
	.st0{display:none;}
	
		.st1{display:inline;fill:#0000BC;stroke:#FFFFFF;stroke-width:3;stroke-linecap:round;stroke-linejoin:round;stroke-miterlimit:10;}
	.st2{fill:none;stroke:#FFFFFF;stroke-width:3;stroke-linecap:round;stroke-linejoin:round;stroke-miterlimit:10;}
	.st3{fill:none;stroke:#FFFFFF;stroke-width:1.5;stroke-linecap:round;stroke-linejoin:round;stroke-miterlimit:10;}
</style>
<g id="Слой_2">
</g>
<g id="Слой_1">
	<g id="Слой_2_1_">
	</g>
	<g id="Слой_1_2_">
		<g id="Слой_1_1_" class="st0">
		</g>
		<g id="Слой_4" class="st0">
			<rect x="-11.5" y="-5.9" class="st1" width="70.4" height="60.3"/>
		</g>
		<g id="Слой_3">
		</g>
		<g id="Слой_2_2_">
			<path class="st2" d="M33.2,33.4c0,0-6.2-4.2-6.7-4.6l-0.2-2.5c0,0,2.3-2.6,3.1-4.9c0,0,2.8-1.7,0.9-5c0-0.2-0.3-1-0.3-1.4
				c0.2-2.7,0.9-10.9-8.2-11.1c0,0-10.3-0.4-8.6,11.4c0,0,0.2,0.5-0.1,1.2s-1.8,2.9,0.9,4.8c0,0,1.1,3.5,2.6,4.7l0.2,2.8
				c0,0-3.3,2.8-13.6,7c-0.3,0.1-0.6,0.9-0.5,2l-0.1,5c0,0-0.2,1.1,1.1,1.1s21-0.2,21-0.2"/>
		</g>
	</g>
	<g id="Слой_3_1_">
		<path class="st3" d="M29.6,44.2l9.5-9.6c0,0-0.6-3.9,1.5-5.6s4.8-1.4,6.5,0.1c2.1,1.8,1.9,5.5-0.1,7.2c-1.7,1.4-2.8,1.2-5,1.1
			l-2.5,2.3L37,39.4l-0.8,3.8l-2.5,0.4l-0.9,2.6l-2.6,0.1L29.6,44.2z"/>
	</g>
</g>
</svg>
