<?xml version="1.0" encoding="utf-8"?>
<!-- Generator: Adobe Illustrator 24.0.2, SVG Export Plug-In . SVG Version: 6.00 Build 0)  -->
<svg version="1.1" xmlns="http://www.w3.org/2000/svg" xmlns:xlink="http://www.w3.org/1999/xlink" x="0px" y="0px"
	 viewBox="0 0 50 50" style="enable-background:new 0 0 50 50;" xml:space="preserve">
<style type="text/css">
	.st0{display:none;}
	.st1{display:inline;}
	.st2{fill:#3200BA;stroke:#000000;stroke-miterlimit:10;}
	.st3{display:inline;fill:#FFFFFF;}
	.st4{display:inline;fill:none;stroke:#FFFFFF;stroke-width:0.9;stroke-miterlimit:10;}
	.st5{display:none;fill:#FFFFFF;}
	.st6{fill:#FFFFFF;}
	.st7{fill:none;stroke:#FFFFFF;stroke-width:0.9;stroke-miterlimit:10;}
</style>
<g id="Слой_1">
	<g id="Слой_1_4_" class="st0">
		<g id="Слой_2_1_" class="st1">
			<rect x="-2.9" y="-4" class="st2" width="53.4" height="53.4"/>
		</g>
		<g id="Слой_1_3_" class="st1">
			<g id="Слой_2_2_" class="st0">
			</g>
			<g id="Слой_1_2_">
				<g id="Слой_1_1_" class="st0">
					<path class="st3" d="M39,9.1h4.6c0,0,3-0.2,2.9,1.8c0,0,0.2,1.4-2.5,1.7l-5,0.1C39,12.7,39.8,11.2,39,9.1z"/>
					<path class="st4" d="M28.5,37.4"/>
					<path class="st4" d="M37.1,45.8"/>
					<path class="st4" d="M45.7,37.4"/>
					<path class="st4" d="M37.1,29"/>
				</g>
				<g id="Слой_2_3_" class="st0">
					<path class="st3" d="M26.8,9.4H5.7c0,0-2.3,0.6-2.2,1.7s2.1,1.6,2.1,1.6h21.3C26.8,12.7,25.9,11,26.8,9.4z"/>
					<path class="st3" d="M22.6,25.7c0.2-1.3,1.3-2.2,2.6-2.2h19.4c0,0,2.2,0.3,2,1.8c-0.1,0.7-0.4,0.9-0.9,1
						c-0.5,0.2-1,0.6-1.5,0.4c-2.6-1-8.8-2.1-13.9,0.1C30,26.9,29.6,27,29.2,27c-1.6,0-4.9,0-4.9,0C23.8,27,22.5,25.9,22.6,25.7z"/>
				</g>
			</g>
			<g id="Слой_3_1_" class="st0">
			</g>
			<path class="st5" d="M44.9,12.6h-3.1c-1,0-1.7-0.8-1.7-1.7l0,0c0-1,0.8-1.7,1.7-1.7h3.1c1,0,1.7,0.8,1.7,1.7l0,0
				C46.6,11.8,45.8,12.6,44.9,12.6z"/>
			<path class="st5" d="M8.2,12.6H5.1c-1,0-1.7-0.8-1.7-1.6l0,0c0-0.9,0.8-1.6,1.7-1.6h3.1c1,0,1.7,0.8,1.7,1.6l0,0
				C9.9,11.8,9.1,12.6,8.2,12.6z"/>
			<path class="st5" d="M47,25.8c-0.2,1.2-1.6,1.5-2.7,1L42,25.9c-1.7-0.4-1.5-2.1-0.1-2.3c0.1,0,0.3,0,0.4,0h2.8
				c1,0,1.9,0.9,1.9,1.9l0,0C47.1,25.6,47,25.7,47,25.8z"/>
			<path class="st5" d="M27.3,27h-3.1c-1,0-1.7-0.8-1.7-1.7l0,0c0-1,0.8-1.7,1.7-1.7h3.1c1,0,1.7,0.8,1.7,1.7l0,0
				C29.1,26.3,28.3,27,27.3,27z"/>
			<path class="st5" d="M8.2,40H5.1c-1,0-1.7-0.8-1.7-1.7l0,0c0-1,0.8-1.7,1.7-1.7h3.1c1,0,1.7,0.8,1.7,1.7l0,0
				C10,39.2,9.2,40,8.2,40z"/>
			<path class="st5" d="M26.2,36.4H5.6c0,0-2.3,0.6-2.2,1.8C3.6,39.4,5.5,40,5.5,40h20.7C26.2,40,25.7,37.6,26.2,36.4z"/>
		</g>
		<g id="Слой_4" class="st1">
		</g>
	</g>
	<g id="верхняя_полосочка">
		<path class="st6" d="M4.8,12.3H25c0.8,0,1.5-0.7,1.5-1.5l0,0c0-0.8-0.7-1.5-1.5-1.5H4.8C4,9.3,3.3,10,3.3,10.8l0,0
			C3.3,11.7,4,12.3,4.8,12.3z"/>
		<path class="st6" d="M39.3,12.3h5.8c0.8,0,1.5-0.7,1.5-1.5l0,0c0-0.8-0.7-1.5-1.5-1.5h-5.8c-0.8,0-1.5,0.7-1.5,1.5l0,0
			C37.8,11.7,38.5,12.3,39.3,12.3z"/>
	</g>
	<g id="средний_шарик">
		<circle class="st6" cx="14" cy="25.1" r="4.7"/>
	</g>
	<g id="верхний_шарик">
		<ellipse class="st6" cx="32.2" cy="11" rx="4" ry="3.9"/>
	</g>
	<g id="средняя_полосочка">
		<path class="st6" d="M23.9,26.8c2,0,16.2,0,21.2,0c0.8,0,1.5-0.7,1.5-1.5l0,0c0-0.8-0.7-1.5-1.5-1.5H23.9c-0.8,0-1.5,0.7-1.5,1.5
			l0,0C22.4,26.1,23,26.8,23.9,26.8z"/>
		<path class="st6" d="M5,27L5,27c-1,0-1.7-0.8-1.7-1.7l0,0c0-1,0.8-1.7,1.7-1.7l0,0c1,0,1.7,0.8,1.7,1.7l0,0C6.8,26.2,6,27,5,27z"
			/>
	</g>
	<g id="нижняя_линия">
		<path class="st6" d="M4.9,38.9H22c0.8,0,1.5-0.7,1.5-1.5l0,0c0-0.8-0.7-1.5-1.5-1.5H4.9c-0.8,0-1.5,0.7-1.5,1.5l0,0
			C3.4,38.2,4.1,38.9,4.9,38.9z"/>
	</g>
	<g id="шестеренка">
		<ellipse class="st6" cx="36.4" cy="39.4" rx="2.9" ry="2.9"/>
		<path class="st7" d="M27.7,39.4c0-4.8,3.9-8.6,8.7-8.6"/>
		<path class="st7" d="M36.4,48c-4.8,0-8.7-3.9-8.7-8.6"/>
		<path class="st7" d="M45.1,39.4c0,4.8-3.9,8.6-8.7,8.6"/>
		<path class="st7" d="M36.4,30.8c4.8,0,8.7,3.9,8.7,8.6"/>
		<path class="st6" d="M40,33.9c0,0-1.1-0.7-2.1-0.9v-2.1l2.3,0.7l1.2,1L40,33.9z"/>
		<path class="st6" d="M43.2,34.3l1.3,1.7l0.3,2.1l-2.1,0.1c0,0-0.1-1.7-0.9-2.4L43.2,34.3z"/>
		<path class="st6" d="M44.7,40.8h-2c0,0-0.4,1.7-0.9,2.2l1.7,1.7l1.7-2.2L44.7,40.8z"/>
		<path class="st6" d="M40,44.9c0,0-0.9,0.8-2.1,1V48l3.6-1.1l-0.1-0.6L40,44.9z"/>
		<path class="st6" d="M35.3,33.1l0.1-2.4L31.3,32l0.1,0.8l1.3,1.2C32.9,33.9,34.3,33.1,35.3,33.1z"/>
		<path class="st6" d="M29.6,34.3l1.3,1.4c0,0-0.6,1.8-0.7,2.5l-2.9-0.1L29.6,34.3z"/>
		<path class="st6" d="M30.1,40.7c0,0,0.7,1.9,1,2.2l-1.7,1.8l-2-3.9l0.6,0.1L30.1,40.7z"/>
		<path class="st6" d="M31.6,46.2l1.3-1.3c0,0,1.3,0.9,2.4,0.9v2.3l-3.3-0.8L31.6,46.2z"/>
	</g>
</g>
<g id="Слой_3" class="st0">
	<path class="st3" d="M29.9,26.8H23c-0.8,0-1.5-0.7-1.5-1.5v0c0-0.8,0.7-1.5,1.5-1.5h6.9c0.8,0,1.5,0.7,1.5,1.5v0
		C31.4,26.1,30.7,26.8,29.9,26.8z"/>
	<path class="st3" d="M45,26.8h-2.7c-0.8,0-1.5-0.7-1.5-1.5v0c0-0.8,0.7-1.5,1.5-1.5H45c0.8,0,1.5,0.7,1.5,1.5v0
		C46.5,26.1,45.9,26.8,45,26.8z"/>
</g>
<g id="Слой_2" class="st0">
	<g id="нижняя_линия_1_" class="st1">
		<path class="st6" d="M21.5,26.8H31c0.4,0,0.8-0.7,0.8-1.5l0,0c0-0.8-0.4-1.5-0.8-1.5h-9.5c-0.4,0-0.8,0.7-0.8,1.5l0,0
			C20.7,26.1,21.1,26.8,21.5,26.8z"/>
	</g>
	<g id="нижняя_линия_2_" class="st1">
		<path class="st6" d="M42,27h3.6c0.2,0,0.3-0.7,0.3-1.5l0,0c0-0.8-0.1-1.5-0.3-1.5H42c-0.2,0-0.3,0.7-0.3,1.5l0,0
			C41.7,26.3,41.8,27,42,27z"/>
	</g>
</g>
</svg>
