<?xml version="1.0" encoding="utf-8"?>
<!-- Generator: Adobe Illustrator 24.0.2, SVG Export Plug-In . SVG Version: 6.00 Build 0)  -->
<svg version="1.1" xmlns="http://www.w3.org/2000/svg" xmlns:xlink="http://www.w3.org/1999/xlink" x="0px" y="0px"
	 viewBox="0 0 93.62 212.09" style="enable-background:new 0 0 93.62 212.09;" xml:space="preserve">
<style type="text/css">
	.st0{fill:#CFFFFD;}
	.st1{fill:#FFD6CA;}
	.st2{fill:none;stroke:#000000;stroke-width:0.35;stroke-linecap:round;stroke-miterlimit:10;}
	.st3{fill:none;stroke:#000000;stroke-width:0.4;stroke-linecap:round;stroke-miterlimit:10;}
	.st4{fill:none;stroke:#000000;stroke-width:0.3;stroke-linecap:round;stroke-miterlimit:10;}
	.st5{fill:#F6FFD9;}
	.st6{fill:#FFFFFF;stroke:#000000;stroke-width:0.3;stroke-linecap:round;stroke-miterlimit:10;}
	.st7{fill:#F6FFD9;stroke:#000000;stroke-width:0.3;stroke-linecap:round;stroke-miterlimit:10;}
	.st8{display:none;fill:#F6FFD9;stroke:#000000;stroke-width:0.3;stroke-miterlimit:10;}
	.st9{fill:#FFFFFF;stroke:#000000;stroke-width:0.3;stroke-miterlimit:10;}
	.st10{fill:#FFFFFF;stroke:#000000;stroke-width:0.3;stroke-linecap:square;stroke-miterlimit:10;}
	.st11{fill:none;stroke:#000000;stroke-linecap:round;stroke-miterlimit:10;}
	.st12{font-family:'MyriadPro-Regular';}
	.st13{font-size:5px;}
</style>
<g id="Слой_2">
	<rect x="57.05" y="98.5" class="st0" width="1.56" height="63.06"/>
	<rect x="42.86" y="155.95" class="st1" width="1.13" height="8.08"/>
	<rect x="44.78" y="159.76" class="st0" width="1.12" height="4.27"/>
	<rect x="44.78" y="159.76" class="st0" width="13.83" height="1.8"/>
	<polyline class="st2" points="44.78,163.99 44.78,159.76 57.05,159.76 57.04,99.99 54.11,99.99 	"/>
	<rect x="53.92" y="98.5" class="st0" width="4.66" height="1.51"/>
	<polyline class="st2" points="54.1,98.48 58.61,98.48 58.61,161.56 46.08,161.56 46.08,163.99 	"/>
	<line class="st3" x1="43.32" y1="167.36" x2="39.9" y2="170.84"/>
	<line class="st3" x1="39.84" y1="170.09" x2="39.9" y2="170.84"/>
	<line class="st3" x1="40.66" y1="170.78" x2="39.91" y2="170.85"/>
	<line class="st3" x1="44.78" y1="167.36" x2="48.03" y2="170.83"/>
	<line class="st3" x1="48.09" y1="170.08" x2="48.03" y2="170.83"/>
	<line class="st3" x1="47.31" y1="170.78" x2="48.02" y2="170.84"/>
	<line class="st3" x1="48.15" y1="174.46" x2="44.73" y2="177.93"/>
	<line class="st3" x1="44.67" y1="177.18" x2="44.73" y2="177.93"/>
	<line class="st3" x1="45.49" y1="177.88" x2="44.74" y2="177.94"/>
	<line class="st3" x1="39.72" y1="174.49" x2="42.97" y2="177.97"/>
	<line class="st3" x1="43.03" y1="177.21" x2="42.97" y2="177.97"/>
	<line class="st3" x1="42.25" y1="177.91" x2="42.96" y2="177.98"/>
	<line class="st3" x1="42.61" y1="183.75" x2="38.22" y2="195.91"/>
	<line class="st3" x1="37.76" y1="194.92" x2="38.22" y2="195.91"/>
	<line class="st3" x1="39.2" y1="195.71" x2="38.23" y2="195.94"/>
	<line class="st3" x1="45.11" y1="183.74" x2="49.19" y2="195.9"/>
	<line class="st3" x1="49.62" y1="194.91" x2="49.19" y2="195.9"/>
	<line class="st3" x1="48.29" y1="195.7" x2="49.18" y2="195.93"/>
</g>
<g id="Слой_4">
	<line class="st4" x1="42.86" y1="156.64" x2="42.86" y2="163.99"/>
	<line class="st4" x1="43.99" y1="164.02" x2="43.99" y2="156.64"/>
</g>
<g id="Слой_1">
	<g id="Слой_3">
		<rect x="29.76" y="27.91" class="st5" width="1.58" height="87.23"/>
		<rect x="29.76" y="113.56" class="st5" width="5.14" height="1.72"/>
		<rect x="29.81" y="28.02" class="st5" width="5.39" height="1.74"/>
		<rect x="29.76" y="41.73" class="st5" width="5.14" height="1.65"/>
		<polyline class="st4" points="34.9,28.02 29.81,28.02 29.82,115.25 34.9,115.25 		"/>
		<polyline class="st4" points="34.95,41.73 31.39,41.73 31.4,29.76 34.97,29.81 		"/>
		<polyline class="st4" points="35.08,113.56 31.4,113.56 31.38,43.38 34.9,43.38 		"/>
	</g>
	<path class="st1" d="M49.22,156.64h-9.46c-2.68,0-4.86-2.17-4.86-4.86v-35.06h19.17v35.06C54.07,154.47,51.9,156.64,49.22,156.64z"
		/>
	<path class="st0" d="M48.73,107.18h-8.3c-2.95,0-5.35-2.39-5.35-5.35V53.41h18.99v48.42C54.07,104.79,51.68,107.18,48.73,107.18z"
		/>
	<path class="st4" d="M54.07,99.99v1.5c0,3.15-2.55,5.7-5.7,5.7H40.6c-3.15,0-5.7-2.55-5.7-5.7V43.38"/>
	<path class="st4" d="M34.95,41.73c0.35-2.81,2.74-4.97,5.65-4.97h7.78c3.15,0,5.7,2.55,5.7,5.7v56.02"/>
	<path class="st4" d="M42.86,156.64H40.6c-3.15,0-5.7-2.55-5.7-5.7v-35.67"/>
	<path class="st6" d="M42.94,157.66"/>
	<path class="st4" d="M35.08,113.57c0.63-2.47,2.86-4.29,5.52-4.29h7.78c3.15,0,5.7,2.55,5.7,5.7v35.97c0,3.15-2.55,5.7-5.7,5.7
		h-4.39"/>
	<path class="st7" d="M34.9,28.02v-8.8c0-3.15,2.55-5.7,5.7-5.7h7.78c3.15,0,5.7,2.55,5.7,5.7v9.74c0,3.15-2.55,5.7-5.7,5.7H40.6
		c-2.83,0-5.18-2.06-5.62-4.77"/>
	<line class="st8" x1="31.19" y1="38.46" x2="31.19" y2="38.84"/>
	<polyline class="st8" points="31.19,39.49 31.19,102.27 29.81,102.27 29.81,27.07 31.2,27.07 31.19,38.47 	"/>
	<polyline class="st8" points="31.05,27.76 34.84,27.81 34.84,26.24 29.81,26.24 29.81,27.89 	"/>
	<polyline class="st8" points="31.18,39.64 34.85,39.64 34.85,38.34 31.18,38.34 	"/>
	<polyline class="st8" points="30.17,101.73 30.17,102.4 35.12,102.4 35.12,101.73 31.04,101.73 	"/>
	<path class="st4" d="M46.08,164.02c2.24,0.06,4.02,1.91,4.02,4.16v5.97c0,1.08-0.41,2.06-1.09,2.8"/>
	<line class="st4" x1="43.99" y1="164.03" x2="44.78" y2="164.03"/>
	<path class="st4" d="M43.74,163.14"/>
	<path class="st4" d="M42.71,163.14"/>
	<path class="st4" d="M39.52,177.3c-0.83-0.76-1.38-1.94-1.38-3.15v-5.97c0-2.29,1.85-4.11,4.15-4.15l0.55-0.02"/>
	<path class="st9" d="M39.33,177.06"/>
	<line class="st10" x1="42.43" y1="181.07" x2="39.5" y2="177.28"/>
	<line class="st10" x1="49.06" y1="176.89" x2="45.68" y2="181.21"/>
	<path class="st9" d="M45.7,181.18c3.59,4.51,7.52,20.69,7.52,20.69"/>
	<path class="st9" d="M34.78,201.87c0,0,4.01-16.51,7.63-20.83"/>
</g>
<g id="Слой_5">
	<line class="st11" x1="51.36" y1="23.11" x2="58.64" y2="16.6"/>
	<line class="st11" x1="52.77" y1="58.09" x2="62.21" y2="53.41"/>
	<line class="st11" x1="30.55" y1="29.76" x2="24.3" y2="24.1"/>
	<line class="st11" x1="57.83" y1="104.81" x2="65.15" y2="101.36"/>
	<line class="st11" x1="36.55" y1="145.66" x2="28.26" y2="141.83"/>
	<line class="st11" x1="49.06" y1="171.83" x2="62.85" y2="168.77"/>
	<line class="st11" x1="52.34" y1="200.43" x2="64.51" y2="195.83"/>
	<text transform="matrix(1 0 0 1 54.159 14.0424)"><tspan x="0" y="0" class="st12 st13">бак с сжатым</tspan><tspan x="7.44" y="4" class="st12 st13"> газом</tspan></text>
	<text transform="matrix(1 0 0 1 7.2301 22.213)" class="st12 st13">подача газа</text>
	<text transform="matrix(1 0 0 1 55.4569 50.1701)" class="st12 st13">бак с горючим</text>
	<text transform="matrix(1 0 0 1 65.2979 95.106)"><tspan x="0" y="0" class="st12 st13">подача </tspan><tspan x="-2.12" y="4" class="st12 st13">горючего</tspan></text>
	<text transform="matrix(1 0 0 1 11.7576 136.0854)"><tspan x="0" y="0" class="st12 st13">бак с </tspan><tspan x="-8.22" y="4" class="st12 st13">окислителем</tspan></text>
	<text transform="matrix(1 0 0 1 61.7177 162.5111)"><tspan x="0" y="0" class="st12 st13">камера </tspan><tspan x="-1.66" y="4" class="st12 st13">сгорания</tspan></text>
	<text transform="matrix(1 0 0 1 61.8555 193.1498)" class="st12 st13">сопло</text>
	<line class="st11" x1="41.61" y1="180.01" x2="24.94" y2="177.94"/>
	<text transform="matrix(1 0 0 1 10.1359 173.2336)" class="st12 st13">конфузор</text>
</g>
</svg>
