<?xml version="1.0" encoding="UTF-8" standalone="no"?>
<svg
   xmlns:svg="http://www.w3.org/2000/svg"
   xmlns="http://www.w3.org/2000/svg"
   xmlns:xlink="http://www.w3.org/1999/xlink"
   version="1.1"
   width="1282"
   height="777">
  <path
     d="m 31.75,317.25 c 10,-153.25 140,-153.25 150,0"
     id="rect3664"
     style="fill:#FFF;stroke:#000;stroke-width:2.5" />
  <g
     transform="translate(-39,-31)"
     id="g3729">
    <rect
       width="150"
       height="423.5"
       rx="25"
       x="70.75"
       y="323.25"
       id="rect2888"
       style="fill:#FFF;stroke:#000;stroke-width:2.5" />
    <rect
       width="93.5"
       height="180"
       rx="12"
       x="99"
       y="500.25"
       id="rect3681"
       style="fill:#FF0;stroke:#000;stroke-width:2.5" />
    <rect
       width="93.5"
       height="120"
       rx="12"
       x="99"
       y="353.25"
       id="rect3685"
       style="fill:#00F;stroke:#000;stroke-width:2.5" />
    <path
       d="m 176,807 c 0,0 1.25,-60.25 -30,-60.25 -31.25,0 -30,60.25 -30,60.25"
       id="path3713"
       style="fill:#FFF;stroke:#000;stroke-width:2.5;stroke-linecap:round" />
    <path
       d="m 156.25,680.25 0,66.5"
       id="path3721"
       style="stroke:#000;stroke-width:2.5" />
    <path
       d="m 137,746.75 -56.75,-66.25 0,-190 23,-23"
       id="path3723"
       style="fill:none;stroke:#000;stroke-width:2.5;stroke-linecap:round" />
  </g>
  <use
     transform="translate(597.25,0)"
     id="use3764"
     xlink:href="#rect3664" />
  <use
     transform="translate(597.25,0)"
     id="use3739"
     xlink:href="#g3729" />
  <use
     transform="translate(1008.25,0)"
     id="use3741"
     xlink:href="#g3729" />
  <use
     transform="translate(1008.25,0)"
     id="use3766"
     xlink:href="#rect3664" />
  <g
     transform="translate(-39,-31)"
     id="g3807">
    <path
       d="m 70.75,721.25 -29.75,0 29.75,-60"
       id="path3803"
       style="fill:#FFF;stroke:#000;stroke-width:2.5;stroke-linejoin:round" />
    <use
       transform="matrix(-1,0,0,1,291.5,0)"
       id="use3805"
       xlink:href="#path3803" />
  </g>
  <use
     transform="translate(262,0)"
     id="use3737"
     xlink:href="#g3729" />
  <use
     transform="translate(262,0)"
     id="use3811"
     xlink:href="#g3807" />
  <path
     d="m 293.75,317.25 37.5,-139.95191 75,0 37.5,139.95191"
     id="path4129"
     style="fill:#FFF;stroke:#000;stroke-width:2.5px" />
  <path
     d="m 383.75,288.75 c 0,0 0.61989,-30.5 -15,-30.5 -15.61989,0 -15,30.5 -15,30.5"
     id="path3850"
     style="fill:#FFF;stroke:#000;stroke-width:2.5;stroke-linecap:round" />
  <path
     d="m 331.25,246 -15,0 15,-30"
     id="path3858"
     style="fill:#FFF;stroke:#000;stroke-width:2.5;stroke-linejoin:round" />
  <g
     transform="translate(-39,-31)"
     id="g4041">
    <path
       d="m 370.25,90.5 c 5,-76.5 70,-76.5 75,0"
       id="path3840"
       style="fill:#FFF;stroke:#000;stroke-width:2.5" />
    <use
       transform="matrix(-1,0,0,1,776.5,31)"
       id="use4019"
       xlink:href="#path3858" />
    <rect
       width="75"
       height="211.25"
       rx="12.5"
       x="370.25"
       y="78"
       id="rect3844"
       style="fill:#FFF;stroke:#000;stroke-width:2.5" />
    <rect
       width="46.75"
       height="90"
       rx="6"
       x="384.375"
       y="166.25"
       id="rect3846"
       style="fill:#FF0;stroke:#000;stroke-width:2.5" />
    <rect
       width="46.75"
       height="60"
       rx="6"
       x="384.375"
       y="93"
       id="rect3848"
       style="fill:#00F;stroke:#000;stroke-width:2.5" />
  </g>
  <g
     transform="translate(-39,-31)"
     id="g4077">
    <path
       d="m 413,256.25 0,33"
       id="path3852"
       style="stroke:#000;stroke-width:2.5" />
    <path
       d="M 403.5,289.25 375,256 375,161.5 386.5,150"
       id="path3854"
       style="fill:none;stroke:#000;stroke-width:2.5;stroke-linecap:round" />
  </g>
  <g
     transform="translate(-39,-31)"
     id="g4050">
    <use
       transform="translate(486.62496,488)"
       id="use4015"
       xlink:href="#path3850" />
    <use
       transform="translate(486.75,488.5)"
       id="use4048"
       xlink:href="#g4041" />
  </g>
  <use
     transform="translate(858.75,457.5)"
     id="use4056"
     xlink:href="#g4041" />
  <use
     transform="matrix(-1,0,0,1,1408,0)"
     id="use4054"
     xlink:href="#g4050" />
  <use
     transform="matrix(-1,0,0,1,1371.25,457.5)"
     id="use4059"
     xlink:href="#g4041" />
  <path
     d="M 1125.5,703 1023.75,679.75"
     id="path4222"
     style="stroke:#000;stroke-width:2.5" />
  <path
     d="m 1049.5,602 -25.75,-25.5"
     id="path4226"
     style="stroke:#000;stroke-width:2.5" />
  <use
     transform="translate(447.75,457.5)"
     id="use4081"
     xlink:href="#g4077" />
  <use
     transform="matrix(-1,0,0,1,960.25,457.5)"
     id="use4089"
     xlink:href="#g4077" />
  <g
     transform="translate(223,-31)"
     id="g4112">
    <path
       d="m 95.75,323.25 100,0 c 13.85,0 25,11.15 25,25 l 0,373.5 c 0,13.85 -11.15,25 -25,25 l -100,0 c -13.85,0 -25,-11.15 -25,-25 l 0,-373.5 c 0,-13.85 11.15,-25 25,-25 z"
       id="rect4114"
       style="fill:none;stroke:#000;stroke-width:2.5" />
    <rect
       width="93.5"
       height="180"
       rx="12"
       x="99"
       y="500.25"
       id="rect4116"
       style="fill:#FF0;stroke:#000;stroke-width:2.5" />
    <rect
       width="93.5"
       height="120"
       rx="12.057887"
       x="99"
       y="353.25"
       id="rect4118"
       style="fill:#00F;stroke:#000;stroke-width:2.5" />
    <path
       d="m 176,807 c 0,0 1.25,-60.25 -30,-60.25 -31.25,0 -30,60.25 -30,60.25"
       id="path4120"
       style="fill:none;stroke:#000;stroke-width:2.5;stroke-linecap:round" />
    <path
       d="m 156.25,680.25 0,66.5"
       id="path4122"
       style="stroke:#000;stroke-width:2.5" />
    <path
       d="m 137,746.75 -56.75,-66.25 0,-190 23,-23"
       id="path4124"
       style="fill:none;stroke:#000;stroke-width:2.5;stroke-linecap:round" />
  </g>
  <path
     d="m 1079,684 82,-16 45,-91"
     id="path4173"
     style="fill:none;stroke:#000;stroke-width:2.5" />
  <path
     d="m 1125.5,703 81,-22.5"
     id="path4218"
     style="stroke:#000;stroke-width:2.5" />
  <g
     transform="translate(969.25,-31)"
     id="g4200">
    <rect
       width="150"
       height="423.5"
       rx="25"
       x="70.75"
       y="323.25"
       id="rect4202"
       style="fill:none;stroke:#000;stroke-width:2.5" />
    <rect
       width="93.5"
       height="180"
       rx="12"
       x="99"
       y="500.25"
       id="rect4204"
       style="fill:#FF0;stroke:#000;stroke-width:2.5" />
    <rect
       width="93.5"
       height="120"
       rx="12"
       x="99"
       y="353.25"
       id="rect4206"
       style="fill:#00F;stroke:#000;stroke-width:2.5" />
    <path
       d="m 176,807 c 0,0 1.25,-60.25 -30,-60.25 -31.25,0 -30,60.25 -30,60.25"
       id="path4208"
       style="fill:none;stroke:#000;stroke-width:2.5;stroke-linecap:round" />
    <path
       d="m 156.25,680.25 0,66.5"
       id="path4210"
       style="stroke:#000;stroke-width:2.5" />
    <path
       d="m 137,746.75 -56.75,-66.25 0,-190 23,-23"
       id="path4212"
       style="fill:none;stroke:#000;stroke-width:2.5;stroke-linecap:round" />
  </g>
</svg>