<?xml version="1.0" encoding="utf-8"?>
<!-- Generator: Adobe Illustrator 24.0.2, SVG Export Plug-In . SVG Version: 6.00 Build 0)  -->
<svg version="1.1" id="Слой_1" xmlns="http://www.w3.org/2000/svg" xmlns:xlink="http://www.w3.org/1999/xlink" x="0px" y="0px"
	 viewBox="0 0 73.1 85.2" style="enable-background:new 0 0 73.1 85.2;" xml:space="preserve">
<style type="text/css">
	.st0{display:none;}
	
		.st1{display:inline;fill:#29ABE2;stroke:#29ABE2;stroke-width:1.4;stroke-linecap:round;stroke-linejoin:round;stroke-miterlimit:10;}
	.st2{fill:none;stroke:#FFFFFF;stroke-width:1.4;stroke-linecap:round;stroke-linejoin:round;stroke-miterlimit:10;}
	.st3{fill:none;stroke:#FFFFFF;stroke-width:1.4;stroke-linecap:round;stroke-miterlimit:10;}
	.st4{fill:#FFFFFF;}
	.st5{font-family:'Gabriola';}
	.st6{font-size:10px;}
	.st7{font-size:9.9px;}
</style>
<g id="Слой_4">
</g>
<g id="Слой_5" class="st0">
	<rect x="1" y="0.7" class="st1" width="71.4" height="84.5"/>
</g>
<g id="Слой_2_1_">
</g>
<g id="Слой_3">
	<path class="st2" d="M24.8,4.9c3.5-1.6,7.4-2.5,11.6-2.5c15.5,0,28,12.5,28,28c0,7.9-3.3,15-8.5,20.1"/>
	<path class="st2" d="M17.9,9.4c1.1-1,2.3-1.8,3.5-2.6"/>
	<path class="st2" d="M17.2,50.8c-5.4-5.1-8.8-12.4-8.8-20.4c0-7.1,2.6-13.6,7-18.5"/>
	<path class="st2" d="M45.5,55.3h5.8c1.7,0,3,1.4,3,3l0,0c0,1.7-1.4,3-3,3H21.3c-1.7,0-3-1.4-3-3l0,0c0-1.7,1.4-3,3-3h5.8"/>
	<line class="st2" x1="2.7" y1="58.4" x2="17.9" y2="58.4"/>
	<line class="st3" x1="55" y1="58.4" x2="63.8" y2="58.4"/>
	<line class="st3" x1="67" y1="58.4" x2="70.8" y2="58.4"/>
	<line class="st2" x1="22.6" y1="43.2" x2="22.6" y2="47"/>
	<line class="st2" x1="22.6" y1="50" x2="22.6" y2="51.7"/>
	<line class="st2" x1="49.8" y1="43.2" x2="49.8" y2="47"/>
	<line class="st2" x1="49.8" y1="50" x2="49.8" y2="51.7"/>
	<path class="st3" d="M29.7,47.1v5.8c0,1.4-1.1,2.5-2.5,2.5h-0.3l0.7,0"/>
	<path class="st3" d="M42.8,47.1v5.8c0,1.4,1.1,2.5,2.5,2.5h0.3l-0.7,0"/>
	<path class="st3" d="M33.4,47.1v5.8c0,1.4,1.1,2.5,2.5,2.5h0.3h0"/>
	<path class="st3" d="M38.8,47.1v5.8c0,1.4-1.1,2.5-2.5,2.5H36h0"/>
	<path class="st2" d="M29.8,39.9h-5.6c-1,0-1.7-1.1-1.2-2l8.9-15.4"/>
	<path class="st2" d="M31.3,41.9"/>
	<line class="st2" x1="39" y1="39.9" x2="33.4" y2="39.9"/>
	<path class="st2" d="M40.5,22.7l8.8,15.2c0.5,0.9-0.1,2-1.2,2H43"/>
	<line class="st2" x1="40.4" y1="14.4" x2="40.4" y2="28.8"/>
	<line class="st2" x1="32" y1="28.8" x2="32" y2="14.2"/>
	<path class="st2" d="M32,14.1l3.7-6.5c0.2-0.3,0.6-0.3,0.8,0l3.7,6.5c0,0,0,0.1,0,0.1"/>
	<path class="st2" d="M33.3,37.3v6.1c0,0.2-0.2,0.4-0.4,0.4h-2.7c-0.2,0-0.4-0.2-0.4-0.4v-6.1"/>
	<path class="st2" d="M42.7,37.3v6.1c0,0.2-0.2,0.4-0.4,0.4h-2.7c-0.2,0-0.4-0.2-0.4-0.4v-6.1"/>
</g>
<g id="Слой_1_1_" class="st0">
	
		<image style="display:inline;overflow:visible;enable-background:new    ;" width="253" height="220" xlink:href="7CAE945A.jpeg"  transform="matrix(0.2626 0 0 0.2626 0.1008 1.1894)">
	</image>
</g>
<text transform="matrix(1.0719 0 0 1 25.2092 72.1456)"><tspan x="0" y="0" class="st4 st5 st6">SPACE</tspan><tspan x="-13.8" y="8" class="st4 st5 st6">ENGINEERING</tspan><tspan x="33.8" y="8" class="st4 st5 st7"> </tspan></text>
</svg>
